<svg version="1.1" id="Layer_1" xmlns="http://www.w3.org/2000/svg" xmlns:xlink="http://www.w3.org/1999/xlink" x="0px" y="0px"
	 width="100%" viewBox="0 0 101 92" enable-background="new 0 0 101 92" xml:space="preserve">
<path fill="#000000" opacity="1.000000" stroke="none" 
	d="
M62.000000,93.000000 
	C41.333332,93.000000 21.166666,93.000000 1.000000,93.000000 
	C1.000000,62.333332 1.000000,31.666666 1.000000,1.000000 
	C34.666668,1.000000 68.333336,1.000000 102.000000,1.000000 
	C102.000000,31.666666 102.000000,62.333332 102.000000,93.000000 
	C88.833336,93.000000 75.666664,93.000000 62.000000,93.000000 
M39.990070,81.994301 
	C43.611855,81.373116 43.999706,78.684219 43.998169,75.738091 
	C43.994633,68.959076 43.997047,62.180065 43.997047,55.271908 
	C49.206932,55.271908 53.931686,55.271908 59.003014,55.271908 
	C59.003014,62.334530 59.004101,69.129639 59.002602,75.924744 
	C59.001694,80.057343 60.537258,82.322853 65.199890,82.071457 
	C70.845322,81.767075 76.519897,82.030594 82.181458,81.990448 
	C87.851250,81.950249 89.946815,79.912338 89.987747,74.341835 
	C90.037903,67.514687 89.558540,60.651573 90.101357,53.867481 
	C90.961868,43.112858 90.203964,33.411373 78.758553,28.253479 
	C78.616844,28.189617 78.533295,28.007742 78.402298,27.907495 
	C71.154137,22.360825 64.009659,16.670145 56.608910,11.334987 
	C52.923294,8.678052 49.418598,8.388104 45.273262,11.962299 
	C37.519329,18.647900 29.188934,24.707930 20.789713,30.587276 
	C15.014990,34.629505 12.199182,39.240097 12.822279,46.653744 
	C13.572762,55.583008 12.985806,64.623520 13.004803,73.615814 
	C13.018634,80.163368 14.894135,81.982910 21.591398,81.996742 
	C27.419737,82.008781 33.248123,81.998833 39.990070,81.994301 
z"/>
<path fill="#B2B2B2" opacity="1.000000" stroke="none" 
	d="
M39.533279,81.996452 
	C33.248123,81.998833 27.419737,82.008781 21.591398,81.996742 
	C14.894135,81.982910 13.018634,80.163368 13.004803,73.615814 
	C12.985806,64.623520 13.572762,55.583008 12.822279,46.653744 
	C12.199182,39.240097 15.014990,34.629505 20.789713,30.587276 
	C29.188934,24.707930 37.519329,18.647900 45.273262,11.962299 
	C49.418598,8.388104 52.923294,8.678052 56.608910,11.334987 
	C64.009659,16.670145 71.154137,22.360825 78.402298,27.907495 
	C78.533295,28.007742 78.616844,28.189617 78.758553,28.253479 
	C90.203964,33.411373 90.961868,43.112858 90.101357,53.867481 
	C89.558540,60.651573 90.037903,67.514687 89.987747,74.341835 
	C89.946815,79.912338 87.851250,81.950249 82.181458,81.990448 
	C76.519897,82.030594 70.845322,81.767075 65.199890,82.071457 
	C60.537258,82.322853 59.001694,80.057343 59.002602,75.924744 
	C59.004101,69.129639 59.003014,62.334530 59.003014,55.271908 
	C53.931686,55.271908 49.206932,55.271908 43.997047,55.271908 
	C43.997047,62.180065 43.994633,68.959076 43.998169,75.738091 
	C43.999706,78.684219 43.611855,81.373116 39.533279,81.996452 
z"/>
</svg>