<svg version="1.1" id="Layer_1" xmlns="http://www.w3.org/2000/svg" xmlns:xlink="http://www.w3.org/1999/xlink" x="0px" y="0px"
	 width="100%" viewBox="0 0 1206 62" enable-background="new 0 0 1206 62" xml:space="preserve">
<path fill="#0F0F0F" opacity="1.000000" stroke="none" 
	d="
M1206.000000,63.000000 
	C804.400330,63.000000 402.800629,63.000000 1.100481,63.000000 
	C1.100481,42.404202 1.100481,21.807753 1.100481,1.000000 
	C402.362701,1.000000 803.725403,1.000000 1205.541504,1.468652 
	C1205.996582,22.291536 1205.998291,42.645767 1206.000000,63.000000 
M1141.981323,36.451862 
	C1142.994141,32.058903 1143.243896,27.656221 1140.249878,23.942554 
	C1135.237549,17.725607 1128.740112,14.044290 1120.603760,14.027189 
	C1091.450684,13.965923 1062.296753,13.899014 1033.145020,14.105950 
	C1028.300659,14.140339 1023.350403,15.109801 1018.654541,16.396797 
	C1012.114075,18.189327 1005.207092,27.788748 1006.185669,32.842327 
	C1008.001587,42.220734 1015.130554,47.998138 1024.932495,47.999977 
	C1057.417480,48.006077 1089.903442,47.863678 1122.386841,48.093506 
	C1131.244873,48.156178 1137.824463,45.380394 1141.981323,36.451862 
M96.859329,15.788042 
	C87.583061,14.198400 77.810158,25.892195 80.421410,35.640766 
	C82.475327,43.308636 87.961113,47.745640 95.365494,49.521973 
	C102.292580,51.183792 107.449974,47.673351 111.899719,42.650806 
	C116.027901,37.991222 116.944794,30.251484 113.738708,24.573313 
	C109.693459,17.408932 104.525833,14.630466 96.859329,15.788042 
M34.750599,24.533047 
	C31.809847,30.396034 31.922125,36.239933 36.034706,41.342857 
	C40.631241,47.046268 46.196133,50.674210 54.249283,48.092163 
	C62.754498,45.365189 67.233604,40.025715 66.009537,28.680168 
	C65.365021,22.706238 57.943733,16.575542 51.315250,15.904396 
	C44.039989,15.167763 39.647068,19.471439 34.750599,24.533047 
z"/>
<path fill="#1D1D1D" opacity="1.000000" stroke="none" 
	d="
M1206.500000,63.000000 
	C1205.998291,42.645767 1205.996582,22.291536 1205.997314,1.468658 
	C1206.333252,2.166678 1206.953613,3.332463 1206.957153,4.500144 
	C1207.017212,23.999947 1207.000000,43.500000 1206.500000,63.000000 
z"/>
<path fill="#090909" opacity="1.000000" stroke="none" 
	d="
M1141.733032,36.733673 
	C1137.824463,45.380394 1131.244873,48.156178 1122.386841,48.093506 
	C1089.903442,47.863678 1057.417480,48.006077 1024.932495,47.999977 
	C1015.130554,47.998138 1008.001587,42.220734 1006.185669,32.842327 
	C1005.207092,27.788748 1012.114075,18.189327 1018.654541,16.396797 
	C1023.350403,15.109801 1028.300659,14.140339 1033.145020,14.105950 
	C1062.296753,13.899014 1091.450684,13.965923 1120.603760,14.027189 
	C1128.740112,14.044290 1135.237549,17.725607 1140.249878,23.942554 
	C1143.243896,27.656221 1142.994141,32.058903 1141.733032,36.733673 
M1065.347412,32.192665 
	C1063.433228,30.562380 1063.277222,30.540363 1062.188599,31.933794 
	C1059.836182,29.562149 1057.061768,29.098700 1053.312012,29.761980 
	C1051.170288,28.716873 1049.028564,27.671764 1046.566162,26.470219 
	C1046.566162,30.975134 1046.566162,33.941257 1046.566162,36.907379 
	C1046.854248,36.946991 1047.142212,36.986599 1047.430298,37.026211 
	C1047.895630,35.985355 1048.360962,34.944504 1048.826294,33.903648 
	C1049.031372,34.268238 1049.236572,34.632828 1049.441650,34.997417 
	C1050.918945,34.477352 1052.396118,33.957287 1053.942993,34.298927 
	C1055.844971,38.623318 1059.849976,36.354527 1062.595215,37.823872 
	C1062.195190,38.164997 1061.795044,38.506123 1061.395020,38.847229 
	C1061.952759,38.939697 1062.786621,39.309814 1063.020630,39.076935 
	C1064.076294,38.026512 1064.962036,36.805302 1066.395874,36.518330 
	C1068.504517,36.598259 1071.088135,38.483788 1072.678711,34.687496 
	C1072.533936,33.808846 1072.389282,32.930195 1072.017334,31.434610 
	C1070.357300,30.989473 1068.697388,30.544334 1066.424438,30.338314 
	C1066.290649,30.743959 1066.156738,31.149605 1065.347412,32.192665 
M1025.973145,45.731541 
	C1033.536987,43.333786 1037.815308,38.284843 1037.884521,31.674482 
	C1037.939209,26.450411 1034.092407,20.849060 1029.099609,18.882195 
	C1023.797302,16.793409 1017.325439,18.057753 1013.510986,22.243067 
	C1009.567200,26.570261 1008.759094,31.774342 1010.958801,37.066467 
	C1013.515930,43.218536 1018.565002,45.956257 1025.973145,45.731541 
M1102.348877,36.958912 
	C1103.909668,36.381039 1105.470337,35.803165 1107.031128,35.225296 
	C1106.414673,34.451588 1105.798218,33.677879 1105.441162,33.229698 
	C1106.172363,31.614628 1106.831909,30.157944 1107.491455,28.701235 
	C1105.386475,28.409760 1103.281616,28.118286 1100.591675,27.745808 
	C1100.943359,31.386929 1101.208008,34.127769 1102.348877,36.958912 
M1128.867065,29.794321 
	C1126.129028,29.794321 1123.390991,29.794321 1120.413940,29.794321 
	C1122.362671,32.040253 1123.920044,33.835075 1126.147583,36.402309 
	C1127.528687,33.832848 1128.606567,31.827356 1128.867065,29.794321 
M1093.741699,33.178467 
	C1093.620361,33.031784 1093.499023,32.885101 1093.377686,32.738411 
	C1093.404907,32.934116 1093.432129,33.129818 1093.741699,33.178467 
z"/>
<path fill="#0C0C0C" opacity="1.000000" stroke="none" 
	d="
M97.243744,15.849617 
	C104.525833,14.630466 109.693459,17.408932 113.738708,24.573313 
	C116.944794,30.251484 116.027901,37.991222 111.899719,42.650806 
	C107.449974,47.673351 102.292580,51.183792 95.365494,49.521973 
	C87.961113,47.745640 82.475327,43.308636 80.421410,35.640766 
	C77.810158,25.892195 87.583061,14.198400 97.243744,15.849617 
z"/>
<path fill="#0B0B0B" opacity="1.000000" stroke="none" 
	d="
M34.924934,24.192421 
	C39.647068,19.471439 44.039989,15.167763 51.315250,15.904396 
	C57.943733,16.575542 65.365021,22.706238 66.009537,28.680168 
	C67.233604,40.025715 62.754498,45.365189 54.249283,48.092163 
	C46.196133,50.674210 40.631241,47.046268 36.034706,41.342857 
	C31.922125,36.239933 31.809847,30.396034 34.924934,24.192421 
z"/>
<path fill="#545454" opacity="1.000000" stroke="none" 
	d="
M1025.577393,45.790886 
	C1018.565002,45.956257 1013.515930,43.218536 1010.958801,37.066467 
	C1008.759094,31.774342 1009.567200,26.570261 1013.510986,22.243067 
	C1017.325439,18.057753 1023.797302,16.793409 1029.099609,18.882195 
	C1034.092407,20.849060 1037.939209,26.450411 1037.884521,31.674482 
	C1037.815308,38.284843 1033.536987,43.333786 1025.577393,45.790886 
M1028.912231,32.431801 
	C1028.616943,32.221756 1028.321655,32.011707 1028.044067,31.035091 
	C1028.298706,30.076937 1028.884277,29.064743 1028.738525,28.171959 
	C1028.440308,26.345406 1028.252441,24.043999 1027.077393,22.947054 
	C1025.922241,21.868694 1023.053528,21.173468 1021.930237,21.882973 
	C1020.541565,22.760096 1019.979431,25.200130 1019.421265,27.072554 
	C1018.746826,29.334862 1018.450745,31.709967 1017.233093,34.134972 
	C1016.767395,35.207047 1016.301697,36.279118 1015.631775,37.821301 
	C1021.320679,37.821301 1026.214722,37.821301 1032.578613,37.821301 
	C1030.995117,35.656307 1030.001953,34.298527 1028.995728,32.995605 
	C1028.995728,32.995605 1029.041504,32.962505 1028.912231,32.431801 
z"/>
<path fill="#A7A7A7" opacity="1.000000" stroke="none" 
	d="
M1053.960205,30.113556 
	C1057.061768,29.098700 1059.836182,29.562149 1062.532715,32.331501 
	C1062.877319,34.202385 1062.877686,35.675568 1062.877930,37.148746 
	C1059.849976,36.354527 1055.844971,38.623318 1053.682617,33.765190 
	C1053.601562,32.192154 1053.780884,31.152859 1053.960205,30.113556 
z"/>
<path fill="#DDDDDD" opacity="1.000000" stroke="none" 
	d="
M1053.636230,29.937771 
	C1053.780884,31.152859 1053.601562,32.192154 1053.647827,33.334335 
	C1052.396118,33.957287 1050.918945,34.477352 1049.441650,34.997417 
	C1049.236572,34.632828 1049.031372,34.268238 1048.826294,33.903648 
	C1048.360962,34.944504 1047.895630,35.985355 1047.430298,37.026211 
	C1047.142212,36.986599 1046.854248,36.946991 1046.566162,36.907379 
	C1046.566162,33.941257 1046.566162,30.975134 1046.566162,26.470219 
	C1049.028564,27.671764 1051.170288,28.716873 1053.636230,29.937771 
z"/>
<path fill="#E8E8E8" opacity="1.000000" stroke="none" 
	d="
M1101.910889,36.913757 
	C1101.208008,34.127769 1100.943359,31.386929 1100.591675,27.745808 
	C1103.281616,28.118286 1105.386475,28.409760 1107.491455,28.701248 
	C1106.831909,30.157944 1106.172363,31.614628 1105.441162,33.229698 
	C1105.798218,33.677879 1106.414673,34.451588 1107.031128,35.225296 
	C1105.470337,35.803165 1103.909668,36.381039 1101.910889,36.913757 
z"/>
<path fill="#EBEBEB" opacity="1.000000" stroke="none" 
	d="
M1129.275757,29.808094 
	C1128.606567,31.827356 1127.528687,33.832848 1126.147583,36.402309 
	C1123.920044,33.835075 1122.362671,32.040253 1120.413940,29.794321 
	C1123.390991,29.794321 1126.129028,29.794321 1129.275757,29.808094 
z"/>
<path fill="#C8C8C8" opacity="1.000000" stroke="none" 
	d="
M1067.037354,30.099199 
	C1068.697388,30.544334 1070.357300,30.989473 1072.030518,32.131477 
	C1071.420288,33.414940 1070.796875,34.001541 1069.842896,34.331753 
	C1069.078735,34.307514 1068.645264,34.539665 1068.211670,34.771812 
	C1068.865601,34.688751 1069.519409,34.605694 1070.787354,34.205780 
	C1071.685425,34.251720 1071.969238,34.614517 1072.253174,34.977310 
	C1071.088135,38.483788 1068.504517,36.598259 1066.032471,35.892075 
	C1065.780273,34.849869 1065.891602,34.433922 1066.078369,33.677395 
	C1066.623047,32.881958 1067.092285,32.427094 1067.520508,31.969296 
	C1067.479614,31.966358 1067.466675,32.047554 1067.692383,32.321457 
	C1068.395630,32.271576 1068.873291,31.947798 1069.350952,31.624031 
	C1068.948120,31.456108 1068.545410,31.288172 1067.900146,31.019779 
	C1067.450806,30.645948 1067.244141,30.372574 1067.037354,30.099199 
z"/>
<path fill="#EBEBEB" opacity="1.000000" stroke="none" 
	d="
M1066.003052,34.017979 
	C1065.891602,34.433922 1065.780273,34.849869 1065.788940,35.455727 
	C1064.962036,36.805302 1064.076294,38.026512 1063.020630,39.076935 
	C1062.786621,39.309814 1061.952759,38.939697 1061.395020,38.847237 
	C1061.795044,38.506123 1062.195190,38.164997 1062.736572,37.486309 
	C1062.877686,35.675568 1062.877319,34.202385 1062.879883,32.287102 
	C1063.277222,30.540363 1063.433228,30.562380 1065.683594,31.830849 
	C1066.019775,31.469030 1065.933838,31.450529 1065.373535,31.349579 
	C1065.209961,32.171745 1065.606445,33.094868 1066.003052,34.017979 
z"/>
<path fill="#1D1D1D" opacity="1.000000" stroke="none" 
	d="
M1070.173462,34.588150 
	C1070.796875,34.001541 1071.420288,33.414940 1072.144043,32.439941 
	C1072.389282,32.930195 1072.533936,33.808846 1072.465942,34.832405 
	C1071.969238,34.614517 1071.685425,34.251720 1070.745239,34.222900 
	C1070.088989,34.556877 1070.173462,34.588154 1070.173462,34.588150 
z"/>
<path fill="#A7A7A7" opacity="1.000000" stroke="none" 
	d="
M1065.933838,31.450529 
	C1065.933838,31.450529 1066.019775,31.469030 1066.021240,31.512138 
	C1066.156738,31.149605 1066.290649,30.743959 1066.730957,30.218758 
	C1067.244141,30.372574 1067.450806,30.645948 1067.734375,31.253963 
	C1067.696289,31.741587 1067.581543,31.894569 1067.466675,32.047554 
	C1067.466675,32.047554 1067.479614,31.966358 1067.078491,31.947704 
	C1066.429443,31.769545 1066.181641,31.610037 1065.933838,31.450529 
z"/>
<path fill="#1D1D1D" opacity="1.000000" stroke="none" 
	d="
M1093.600586,33.251991 
	C1093.432129,33.129818 1093.404907,32.934116 1093.377686,32.738415 
	C1093.499023,32.885101 1093.620361,33.031784 1093.600586,33.251991 
z"/>
<path fill="#646464" opacity="1.000000" stroke="none" 
	d="
M1017.990845,34.036251 
	C1018.450745,31.709967 1018.746826,29.334862 1019.421265,27.072554 
	C1019.979431,25.200130 1020.541565,22.760096 1021.930237,21.882973 
	C1023.053528,21.173468 1025.922241,21.868694 1027.077393,22.947054 
	C1028.252441,24.043999 1028.440308,26.345406 1028.738525,28.171959 
	C1028.884277,29.064743 1028.298706,30.076937 1027.677979,31.484203 
	C1027.039062,32.208794 1026.765991,32.484272 1026.492920,32.759739 
	C1027.342407,32.827320 1028.192017,32.894913 1029.041504,32.962505 
	C1029.041504,32.962505 1028.995728,32.995605 1028.809326,33.390541 
	C1028.246582,34.570553 1027.683105,36.076141 1027.521729,36.034199 
	C1024.374146,35.216892 1020.310974,38.565414 1017.990845,34.036251 
M1024.219238,24.349426 
	C1019.976440,26.581347 1022.706787,28.100834 1024.305054,29.735991 
	C1024.842896,29.638079 1025.380859,29.540169 1025.918823,29.442257 
	C1025.567505,27.799574 1025.216309,26.156889 1024.219238,24.349426 
z"/>
<path fill="#DDDDDD" opacity="1.000000" stroke="none" 
	d="
M1017.612000,34.085613 
	C1020.310974,38.565414 1024.374146,35.216892 1027.521729,36.034199 
	C1027.683105,36.076141 1028.246582,34.570553 1028.815918,33.363110 
	C1030.001953,34.298527 1030.995117,35.656307 1032.578613,37.821301 
	C1026.214722,37.821301 1021.320679,37.821301 1015.631775,37.821301 
	C1016.301697,36.279118 1016.767395,35.207047 1017.612000,34.085613 
z"/>
<path fill="#DDDDDD" opacity="1.000000" stroke="none" 
	d="
M1028.976807,32.697151 
	C1028.192017,32.894913 1027.342407,32.827320 1026.492920,32.759739 
	C1026.765991,32.484272 1027.039062,32.208794 1027.669189,31.867489 
	C1028.321655,32.011707 1028.616943,32.221756 1028.976807,32.697151 
z"/>
<path fill="#0F0F0F" opacity="1.000000" stroke="none" 
	d="
M1065.373535,31.349579 
	C1066.181641,31.610037 1066.429443,31.769545 1067.119385,31.950642 
	C1067.092285,32.427094 1066.623047,32.881958 1066.078369,33.677402 
	C1065.606445,33.094868 1065.209961,32.171745 1065.373535,31.349579 
z"/>
<path fill="#545454" opacity="1.000000" stroke="none" 
	d="
M1067.692383,32.321457 
	C1067.581543,31.894569 1067.696289,31.741587 1067.976807,31.354420 
	C1068.545410,31.288172 1068.948120,31.456108 1069.350952,31.624031 
	C1068.873291,31.947798 1068.395630,32.271576 1067.692383,32.321457 
z"/>
<path fill="#545454" opacity="1.000000" stroke="none" 
	d="
M1069.842896,34.331757 
	C1070.173462,34.588154 1070.088989,34.556877 1070.131104,34.539757 
	C1069.519409,34.605694 1068.865601,34.688751 1068.211670,34.771812 
	C1068.645264,34.539665 1069.078735,34.307514 1069.842896,34.331757 
z"/>
<path fill="#545454" opacity="1.000000" stroke="none" 
	d="
M1024.542114,24.431816 
	C1025.216309,26.156889 1025.567505,27.799574 1025.918823,29.442257 
	C1025.380859,29.540169 1024.842896,29.638079 1024.305054,29.735991 
	C1022.706787,28.100834 1019.976440,26.581347 1024.542114,24.431816 
z"/>
</svg>