<svg version="1.1" id="Layer_1" xmlns="http://www.w3.org/2000/svg" xmlns:xlink="http://www.w3.org/1999/xlink" x="0px" y="0px"
	 width="100%" viewBox="0 0 3840 2160" enable-background="new 0 0 3840 2160" xml:space="preserve">
<path fill="#010101" opacity="1.000000" stroke="none" 
	d="
M2462.000000,2162.000000 
	C1641.333496,2162.000000 821.666931,2162.000000 2.000330,2162.000000 
	C2.000220,1442.000244 2.000220,722.000549 2.000110,2.000620 
	C1281.999512,2.000413 2561.999023,2.000413 3841.999023,2.000206 
	C3841.999268,721.999329 3841.999268,1441.998657 3841.999512,2161.999023 
	C3382.333252,2162.000000 2922.666748,2162.000000 2462.000000,2162.000000 
M880.022278,833.981750 
	C885.020996,833.989990 890.019775,834.005493 895.018494,834.005493 
	C1631.233398,834.006592 2367.448242,834.006775 3103.663086,834.003723 
	C3108.995117,834.003662 3114.351074,834.270081 3119.653809,833.864990 
	C3127.670898,833.252625 3133.301758,827.223022 3133.627686,819.528503 
	C3133.963867,811.588440 3128.144287,805.018005 3119.676758,804.154785 
	C3116.045166,803.784607 3112.351807,803.987671 3108.686523,803.987610 
	C2368.472412,803.982483 1628.258179,803.982239 888.043945,803.991821 
	C884.714783,803.991821 881.385681,804.134338 877.234314,803.124878 
	C876.831665,802.595337 876.401978,802.084045 876.030334,801.533569 
	C863.274902,782.641357 835.916992,783.801575 824.781067,799.885803 
	C821.950928,803.973511 818.262390,803.769043 814.264404,803.765076 
	C793.632751,803.744629 773.001099,803.726685 752.369568,803.787415 
	C749.057373,803.797180 745.645569,803.777466 742.455505,804.523132 
	C735.489136,806.151794 731.600586,811.785156 731.664124,819.314453 
	C731.727051,826.764160 735.830017,832.254150 742.909668,833.721130 
	C745.801208,834.320251 748.867432,834.191589 751.854492,834.196960 
	C772.153259,834.233459 792.453796,834.358398 812.750061,834.127075 
	C818.426208,834.062317 822.633789,835.154358 826.463867,840.015259 
	C832.321838,847.449951 840.685303,850.468933 850.282593,850.378296 
	C862.905823,850.259033 871.427734,843.615417 880.022278,833.981750 
M1427.106934,1224.319214 
	C1409.877930,1234.580933 1392.850464,1245.201172 1374.022095,1255.794678 
	C1374.022095,1239.206055 1374.032104,1224.627808 1374.012817,1210.049561 
	C1374.009399,1207.389282 1374.212646,1204.670410 1373.745972,1202.082031 
	C1372.926392,1197.536865 1368.894653,1194.380493 1364.575562,1194.402466 
	C1360.099976,1194.425415 1356.549561,1197.448364 1355.779907,1202.292358 
	C1355.364868,1204.904663 1355.394775,1207.603638 1355.393188,1210.263428 
	C1355.370972,1247.556152 1355.370239,1284.848999 1355.391235,1322.141724 
	C1355.393066,1325.469604 1355.367554,1328.821167 1355.733276,1332.119873 
	C1356.315552,1337.371582 1359.183594,1340.040161 1364.026367,1340.315796 
	C1369.211304,1340.610718 1372.949097,1337.748779 1373.809448,1332.484863 
	C1374.181641,1330.208252 1374.012085,1327.835815 1374.014648,1325.506958 
	C1374.029053,1312.521118 1373.987793,1299.535034 1374.053223,1286.549438 
	C1374.063599,1284.477783 1374.518188,1282.408203 1374.851807,1279.636841 
	C1377.769653,1281.298828 1379.781982,1282.398071 1381.749390,1283.572754 
	C1407.449829,1298.916260 1433.142700,1314.272339 1458.841064,1329.619385 
	C1463.409424,1332.347534 1467.906372,1335.211426 1472.589233,1337.728149 
	C1481.624390,1342.583984 1488.141602,1338.658325 1488.623535,1328.225342 
	C1488.669556,1327.228394 1488.637085,1326.227783 1488.636841,1325.228882 
	C1488.627930,1286.937256 1488.619507,1248.645630 1488.605957,1210.354004 
	C1488.605225,1208.356445 1488.733887,1206.338867 1488.504517,1204.365112 
	C1487.738770,1197.772949 1483.084351,1194.250244 1476.664551,1195.733398 
	C1474.156128,1196.312866 1471.788940,1197.766113 1469.527222,1199.107544 
	C1455.796875,1207.251099 1442.115601,1215.477173 1427.106934,1224.319214 
M2376.158691,1296.998413 
	C2376.160645,1307.322021 2375.966309,1317.650269 2376.218750,1327.967773 
	C2376.483398,1338.786011 2383.459961,1342.593750 2393.059570,1337.429321 
	C2394.522705,1336.642090 2395.898682,1335.693848 2397.328125,1334.841797 
	C2426.187256,1317.640503 2455.042480,1300.431641 2483.925049,1283.269043 
	C2485.764404,1282.175903 2487.818848,1281.445068 2490.985107,1279.988403 
	C2490.985107,1295.104248 2490.962402,1309.000732 2491.001221,1322.896851 
	C2491.010742,1326.219360 2490.924805,1329.587158 2491.419922,1332.852661 
	C2492.091553,1337.281250 2494.829834,1339.940308 2499.474854,1340.304810 
	C2504.284912,1340.682007 2508.011475,1338.358276 2509.239502,1333.625610 
	C2509.893311,1331.105591 2509.820557,1328.358398 2509.822510,1325.713623 
	C2509.852539,1286.750366 2509.840576,1247.787231 2509.834961,1208.823975 
	C2509.834717,1207.159424 2509.959961,1205.474121 2509.750244,1203.833862 
	C2508.996338,1197.946411 2505.074951,1194.231445 2500.019043,1194.461670 
	C2495.324707,1194.675415 2491.710938,1198.074463 2491.247070,1203.639526 
	C2490.833740,1208.592896 2491.208496,1213.610718 2491.211914,1218.600098 
	C2491.220215,1230.449219 2491.214600,1242.298218 2491.214600,1255.699951 
	C2486.689209,1253.235229 2483.524902,1251.647949 2480.492676,1249.839111 
	C2452.780273,1233.307251 2425.092529,1216.734253 2397.392578,1200.181274 
	C2395.111572,1198.817993 2392.924072,1197.175415 2390.472412,1196.243408 
	C2383.060547,1193.425415 2377.022217,1197.225098 2376.216309,1205.087891 
	C2375.979736,1207.395508 2376.160400,1209.746582 2376.160156,1212.077637 
	C2376.158447,1239.718140 2376.158691,1267.358765 2376.158691,1296.998413 
M886.476685,1324.566772 
	C891.706055,1330.594238 896.924011,1336.631714 902.167358,1342.647095 
	C913.307312,1355.427124 926.935425,1355.677979 937.992981,1343.091309 
	C952.698303,1326.352173 967.310913,1309.530518 981.833679,1292.632690 
	C993.762146,1278.753540 995.393127,1258.911987 986.135681,1243.304810 
	C977.054138,1227.994141 959.454041,1219.738892 941.746582,1223.760498 
	C934.204895,1225.473389 927.219971,1229.637329 919.022705,1233.091553 
	C917.681641,1232.190674 915.290527,1230.436035 912.760376,1228.912231 
	C904.525330,1223.953125 895.591370,1221.639893 886.028198,1222.985596 
	C869.988159,1225.242432 858.213440,1233.562256 851.914429,1248.691406 
	C845.461670,1264.189819 847.671692,1278.789307 858.206970,1291.744995 
	C867.015686,1302.577393 876.419067,1312.925903 886.476685,1324.566772 
M2037.540039,1420.283569 
	C2102.252686,1375.355713 2130.888428,1313.363281 2119.049316,1235.760254 
	C2102.723633,1128.749634 1996.299683,1060.758667 1891.543579,1087.884033 
	C1775.483887,1117.936279 1718.948853,1251.042725 1777.615356,1355.511963 
	C1827.324951,1444.031616 1943.806396,1479.176636 2037.540039,1420.283569 
M2916.697510,1309.976929 
	C2923.834717,1306.149170 2930.972168,1302.321533 2938.866211,1298.088013 
	C2949.274902,1312.317139 2965.819580,1310.979858 2981.459717,1310.839355 
	C2982.840576,1313.849487 2983.865967,1316.084839 2985.157471,1318.900146 
	C2991.760742,1314.957520 2997.727783,1311.396362 3003.693115,1307.831787 
	C3004.829590,1307.152832 3005.958008,1306.459961 3008.651367,1304.827026 
	C2999.711182,1299.426880 2992.536133,1295.093140 2984.842773,1290.446167 
	C2983.611084,1293.758667 2982.836914,1295.841187 2981.898682,1298.364624 
	C2975.805420,1298.364624 2969.812744,1298.782593 2963.899902,1298.275024 
	C2952.583740,1297.303589 2944.184082,1288.219238 2943.741211,1277.143188 
	C2943.272217,1265.400146 2951.009766,1255.452759 2962.709961,1253.972900 
	C2969.160156,1253.156982 2975.798340,1253.826782 2981.992676,1253.826782 
	C2983.133789,1256.641235 2983.938232,1258.625488 2985.056152,1261.382812 
	C2992.729736,1256.745850 2999.717285,1252.523560 3008.574951,1247.171021 
	C2999.605225,1241.839478 2992.436768,1237.578613 2983.929688,1232.522095 
	C2984.200439,1241.912354 2978.825684,1241.566040 2973.659180,1241.219238 
	C2960.806152,1240.356445 2949.118896,1242.754272 2939.897705,1252.619995 
	C2939.257324,1253.305176 2938.238525,1253.636841 2937.168945,1254.266357 
	C2936.104004,1253.518311 2934.900391,1252.924072 2934.020996,1252.015991 
	C2926.061035,1243.795410 2916.263428,1240.814331 2905.026855,1241.201660 
	C2896.376953,1241.500000 2887.707520,1241.186401 2879.048340,1241.271851 
	C2871.305908,1241.348145 2868.326172,1243.100098 2868.375977,1247.250366 
	C2868.426270,1251.414062 2871.609863,1253.329346 2879.053467,1253.410278 
	C2889.044434,1253.518921 2899.050049,1253.193848 2909.025146,1253.619385 
	C2920.312500,1254.100952 2928.387939,1260.994629 2930.474609,1271.099609 
	C2933.424316,1285.382812 2923.833252,1297.798950 2908.910889,1298.385986 
	C2897.935059,1298.817871 2886.931152,1298.542358 2875.939941,1298.577515 
	C2871.709473,1298.591064 2868.478027,1300.379272 2868.482422,1304.811401 
	C2868.487061,1309.411743 2871.944824,1310.752319 2876.111816,1310.697266 
	C2889.094727,1310.525635 2902.078369,1310.405151 2916.697510,1309.976929 
z"/>
<path fill="#FAFAFA" opacity="1.000000" stroke="none" 
	d="
M878.056519,804.210327 
	C881.385681,804.134338 884.714783,803.991821 888.043945,803.991821 
	C1628.258179,803.982239 2368.472412,803.982483 3108.686523,803.987610 
	C3112.351807,803.987671 3116.045166,803.784607 3119.676758,804.154785 
	C3128.144287,805.018005 3133.963867,811.588440 3133.627686,819.528503 
	C3133.301758,827.223022 3127.670898,833.252625 3119.653809,833.864990 
	C3114.351074,834.270081 3108.995117,834.003662 3103.663086,834.003723 
	C2367.448242,834.006775 1631.233398,834.006592 895.018494,834.005493 
	C890.019775,834.005493 885.020996,833.989990 879.231079,833.153076 
	C882.354858,822.897888 881.501099,813.536438 878.056519,804.210327 
z"/>
<path fill="#FAFAFA" opacity="1.000000" stroke="none" 
	d="
M1427.762451,1223.997559 
	C1442.115601,1215.477173 1455.796875,1207.251099 1469.527222,1199.107544 
	C1471.788940,1197.766113 1474.156128,1196.312866 1476.664551,1195.733398 
	C1483.084351,1194.250244 1487.738770,1197.772949 1488.504517,1204.365112 
	C1488.733887,1206.338867 1488.605225,1208.356445 1488.605957,1210.354004 
	C1488.619507,1248.645630 1488.627930,1286.937256 1488.636841,1325.228882 
	C1488.637085,1326.227783 1488.669556,1327.228394 1488.623535,1328.225342 
	C1488.141602,1338.658325 1481.624390,1342.583984 1472.589233,1337.728149 
	C1467.906372,1335.211426 1463.409424,1332.347534 1458.841064,1329.619385 
	C1433.142700,1314.272339 1407.449829,1298.916260 1381.749390,1283.572754 
	C1379.781982,1282.398071 1377.769653,1281.298828 1374.851807,1279.636841 
	C1374.518188,1282.408203 1374.063599,1284.477783 1374.053223,1286.549438 
	C1373.987793,1299.535034 1374.029053,1312.521118 1374.014648,1325.506958 
	C1374.012085,1327.835815 1374.181641,1330.208252 1373.809448,1332.484863 
	C1372.949097,1337.748779 1369.211304,1340.610718 1364.026367,1340.315796 
	C1359.183594,1340.040161 1356.315552,1337.371582 1355.733276,1332.119873 
	C1355.367554,1328.821167 1355.393066,1325.469604 1355.391235,1322.141724 
	C1355.370239,1284.848999 1355.370972,1247.556152 1355.393188,1210.263428 
	C1355.394775,1207.603638 1355.364868,1204.904663 1355.779907,1202.292358 
	C1356.549561,1197.448364 1360.099976,1194.425415 1364.575562,1194.402466 
	C1368.894653,1194.380493 1372.926392,1197.536865 1373.745972,1202.082031 
	C1374.212646,1204.670410 1374.009399,1207.389282 1374.012817,1210.049561 
	C1374.032104,1224.627808 1374.022095,1239.206055 1374.022095,1255.794678 
	C1392.850464,1245.201172 1409.877930,1234.580933 1427.762451,1223.997559 
z"/>
<path fill="#FAFAFA" opacity="1.000000" stroke="none" 
	d="
M2376.158691,1295.998779 
	C2376.158691,1267.358765 2376.158447,1239.718140 2376.160156,1212.077637 
	C2376.160400,1209.746582 2375.979736,1207.395508 2376.216309,1205.087891 
	C2377.022217,1197.225098 2383.060547,1193.425415 2390.472412,1196.243408 
	C2392.924072,1197.175415 2395.111572,1198.817993 2397.392578,1200.181274 
	C2425.092529,1216.734253 2452.780273,1233.307251 2480.492676,1249.839111 
	C2483.524902,1251.647949 2486.689209,1253.235229 2491.214600,1255.699951 
	C2491.214600,1242.298218 2491.220215,1230.449219 2491.211914,1218.600098 
	C2491.208496,1213.610718 2490.833740,1208.592896 2491.247070,1203.639526 
	C2491.710938,1198.074463 2495.324707,1194.675415 2500.019043,1194.461670 
	C2505.074951,1194.231445 2508.996338,1197.946411 2509.750244,1203.833862 
	C2509.959961,1205.474121 2509.834717,1207.159424 2509.834961,1208.823975 
	C2509.840576,1247.787231 2509.852539,1286.750366 2509.822510,1325.713623 
	C2509.820557,1328.358398 2509.893311,1331.105591 2509.239502,1333.625610 
	C2508.011475,1338.358276 2504.284912,1340.682007 2499.474854,1340.304810 
	C2494.829834,1339.940308 2492.091553,1337.281250 2491.419922,1332.852661 
	C2490.924805,1329.587158 2491.010742,1326.219360 2491.001221,1322.896851 
	C2490.962402,1309.000732 2490.985107,1295.104248 2490.985107,1279.988403 
	C2487.818848,1281.445068 2485.764404,1282.175903 2483.925049,1283.269043 
	C2455.042480,1300.431641 2426.187256,1317.640503 2397.328125,1334.841797 
	C2395.898682,1335.693848 2394.522705,1336.642090 2393.059570,1337.429321 
	C2383.459961,1342.593750 2376.483398,1338.786011 2376.218750,1327.967773 
	C2375.966309,1317.650269 2376.160645,1307.322021 2376.158691,1295.998779 
z"/>
<path fill="#15DCB4" opacity="1.000000" stroke="none" 
	d="
M886.017883,1324.027832 
	C876.419067,1312.925903 867.015686,1302.577393 858.206970,1291.744995 
	C847.671692,1278.789307 845.461670,1264.189819 851.914429,1248.691406 
	C858.213440,1233.562256 869.988159,1225.242432 886.028198,1222.985596 
	C895.591370,1221.639893 904.525330,1223.953125 912.760376,1228.912231 
	C915.290527,1230.436035 917.681641,1232.190674 919.022705,1233.091553 
	C927.219971,1229.637329 934.204895,1225.473389 941.746582,1223.760498 
	C959.454041,1219.738892 977.054138,1227.994141 986.135681,1243.304810 
	C995.393127,1258.911987 993.762146,1278.753540 981.833679,1292.632690 
	C967.310913,1309.530518 952.698303,1326.352173 937.992981,1343.091309 
	C926.935425,1355.677979 913.307312,1355.427124 902.167358,1342.647095 
	C896.924011,1336.631714 891.706055,1330.594238 886.017883,1324.027832 
z"/>
<path fill="#E7E7E7" opacity="1.000000" stroke="none" 
	d="
M2036.926270,1420.661865 
	C1943.806396,1479.176636 1827.324951,1444.031616 1777.615356,1355.511963 
	C1718.948853,1251.042725 1775.483887,1117.936279 1891.543579,1087.884033 
	C1996.299683,1060.758667 2102.723633,1128.749634 2119.049316,1235.760254 
	C2130.888428,1313.363281 2102.252686,1375.355713 2036.926270,1420.661865 
M1994.040283,1431.524780 
	C1997.145386,1430.333008 2000.267822,1429.184326 2003.353027,1427.943237 
	C2079.754150,1397.206177 2124.275146,1317.276978 2110.278320,1235.996094 
	C2093.782715,1140.203125 2002.288574,1076.394531 1906.509521,1093.771729 
	C1812.934326,1110.749146 1746.542725,1201.177856 1766.803833,1301.018921 
	C1787.598267,1403.488403 1892.665894,1463.827759 1994.040283,1431.524780 
z"/>
<path fill="#15DCB4" opacity="1.000000" stroke="none" 
	d="
M877.645386,803.667603 
	C881.501099,813.536438 882.354858,822.897888 878.308594,833.064697 
	C871.427734,843.615417 862.905823,850.259033 850.282593,850.378296 
	C840.685303,850.468933 832.321838,847.449951 826.463867,840.015259 
	C822.633789,835.154358 818.426208,834.062317 812.750061,834.127075 
	C792.453796,834.358398 772.153259,834.233459 751.854492,834.196960 
	C748.867432,834.191589 745.801208,834.320251 742.909668,833.721130 
	C735.830017,832.254150 731.727051,826.764160 731.664124,819.314453 
	C731.600586,811.785156 735.489136,806.151794 742.455505,804.523132 
	C745.645569,803.777466 749.057373,803.797180 752.369568,803.787415 
	C773.001099,803.726685 793.632751,803.744629 814.264404,803.765076 
	C818.262390,803.769043 821.950928,803.973511 824.781067,799.885803 
	C835.916992,783.801575 863.274902,782.641357 876.030334,801.533569 
	C876.401978,802.084045 876.831665,802.595337 877.645386,803.667603 
z"/>
<path fill="#15DCB4" opacity="1.000000" stroke="none" 
	d="
M2915.879639,1310.120850 
	C2902.078369,1310.405151 2889.094727,1310.525635 2876.111816,1310.697266 
	C2871.944824,1310.752319 2868.487061,1309.411743 2868.482422,1304.811401 
	C2868.478027,1300.379272 2871.709473,1298.591064 2875.939941,1298.577515 
	C2886.931152,1298.542358 2897.935059,1298.817871 2908.910889,1298.385986 
	C2923.833252,1297.798950 2933.424316,1285.382812 2930.474609,1271.099609 
	C2928.387939,1260.994629 2920.312500,1254.100952 2909.025146,1253.619385 
	C2899.050049,1253.193848 2889.044434,1253.518921 2879.053467,1253.410278 
	C2871.609863,1253.329346 2868.426270,1251.414062 2868.375977,1247.250366 
	C2868.326172,1243.100098 2871.305908,1241.348145 2879.048340,1241.271851 
	C2887.707520,1241.186401 2896.376953,1241.500000 2905.026855,1241.201660 
	C2916.263428,1240.814331 2926.061035,1243.795410 2934.020996,1252.015991 
	C2934.900391,1252.924072 2936.104004,1253.518311 2937.168945,1254.266357 
	C2938.238525,1253.636841 2939.257324,1253.305176 2939.897705,1252.619995 
	C2949.118896,1242.754272 2960.806152,1240.356445 2973.659180,1241.219238 
	C2978.825684,1241.566040 2984.200439,1241.912354 2983.929688,1232.522095 
	C2992.436768,1237.578613 2999.605225,1241.839478 3008.574951,1247.171021 
	C2999.717285,1252.523560 2992.729736,1256.745850 2985.056152,1261.382812 
	C2983.938232,1258.625488 2983.133789,1256.641235 2981.992676,1253.826782 
	C2975.798340,1253.826782 2969.160156,1253.156982 2962.709961,1253.972900 
	C2951.009766,1255.452759 2943.272217,1265.400146 2943.741211,1277.143188 
	C2944.184082,1288.219238 2952.583740,1297.303589 2963.899902,1298.275024 
	C2969.812744,1298.782593 2975.805420,1298.364624 2981.898682,1298.364624 
	C2982.836914,1295.841187 2983.611084,1293.758667 2984.842773,1290.446167 
	C2992.536133,1295.093140 2999.711182,1299.426880 3008.651367,1304.827026 
	C3005.958008,1306.459961 3004.829590,1307.152832 3003.693115,1307.831787 
	C2997.727783,1311.396362 2991.760742,1314.957520 2985.157471,1318.900146 
	C2983.865967,1316.084839 2982.840576,1313.849487 2981.459717,1310.839355 
	C2965.819580,1310.979858 2949.274902,1312.317139 2938.866211,1298.088013 
	C2930.972168,1302.321533 2923.834717,1306.149170 2915.879639,1310.120850 
z"/>
<path fill="#040404" opacity="1.000000" stroke="none" 
	d="
M1993.264404,1431.713135 
	C1892.665894,1463.827759 1787.598267,1403.488403 1766.803833,1301.018921 
	C1746.542725,1201.177856 1812.934326,1110.749146 1906.509521,1093.771729 
	C2002.288574,1076.394531 2093.782715,1140.203125 2110.278320,1235.996094 
	C2124.275146,1317.276978 2079.754150,1397.206177 2003.353027,1427.943237 
	C2000.267822,1429.184326 1997.145386,1430.333008 1993.264404,1431.713135 
M1910.609985,1209.004150 
	C1910.559814,1199.024536 1910.847778,1189.027832 1910.348145,1179.070801 
	C1909.976074,1171.652588 1904.943726,1167.414917 1897.994263,1167.465454 
	C1891.130859,1167.515503 1886.398804,1172.025269 1885.722168,1179.257080 
	C1885.567749,1180.907227 1885.659912,1182.581665 1885.657349,1184.244873 
	C1885.576172,1238.807617 1885.493652,1293.370239 1885.432007,1347.932983 
	C1885.429810,1349.924194 1885.420044,1351.955933 1885.783691,1353.899536 
	C1886.904785,1359.890991 1891.646973,1363.878540 1897.601807,1364.060425 
	C1904.003174,1364.255859 1909.180176,1360.195435 1910.207153,1353.708862 
	C1910.722900,1350.450562 1910.598999,1347.075684 1910.600464,1343.753540 
	C1910.620605,1299.503174 1910.611816,1255.252686 1910.609985,1209.004150 
M1990.609863,1219.000488 
	C1990.502808,1205.690918 1990.617310,1192.374512 1990.197754,1179.074707 
	C1989.978149,1172.112549 1985.380249,1167.871216 1978.900391,1167.464722 
	C1971.967041,1167.029785 1966.695435,1171.221802 1965.646973,1178.223999 
	C1965.304565,1180.510376 1965.399780,1182.871460 1965.399536,1185.198364 
	C1965.394165,1238.776367 1965.400024,1292.354492 1965.418945,1345.932495 
	C1965.419800,1348.591919 1965.259521,1351.300171 1965.687256,1353.901245 
	C1966.729980,1360.240723 1972.048828,1364.334595 1978.468872,1364.074219 
	C1984.393921,1363.833984 1989.262817,1359.667847 1990.162476,1353.771362 
	C1990.510376,1351.489746 1990.325195,1349.122192 1990.330566,1346.793579 
	C1990.428589,1304.862549 1990.518311,1262.931519 1990.609863,1219.000488 
z"/>
<path fill="#FAFAFA" opacity="1.000000" stroke="none" 
	d="
M1910.610107,1210.003174 
	C1910.611816,1255.252686 1910.620605,1299.503174 1910.600464,1343.753540 
	C1910.598999,1347.075684 1910.722900,1350.450562 1910.207153,1353.708862 
	C1909.180176,1360.195435 1904.003174,1364.255859 1897.601807,1364.060425 
	C1891.646973,1363.878540 1886.904785,1359.890991 1885.783691,1353.899536 
	C1885.420044,1351.955933 1885.429810,1349.924194 1885.432007,1347.932983 
	C1885.493652,1293.370239 1885.576172,1238.807617 1885.657349,1184.244873 
	C1885.659912,1182.581665 1885.567749,1180.907227 1885.722168,1179.257080 
	C1886.398804,1172.025269 1891.130859,1167.515503 1897.994263,1167.465454 
	C1904.943726,1167.414917 1909.976074,1171.652588 1910.348145,1179.070801 
	C1910.847778,1189.027832 1910.559814,1199.024536 1910.610107,1210.003174 
z"/>
<path fill="#FAFAFA" opacity="1.000000" stroke="none" 
	d="
M1990.609985,1220.000488 
	C1990.518311,1262.931519 1990.428589,1304.862549 1990.330566,1346.793579 
	C1990.325195,1349.122192 1990.510376,1351.489746 1990.162476,1353.771362 
	C1989.262817,1359.667847 1984.393921,1363.833984 1978.468872,1364.074219 
	C1972.048828,1364.334595 1966.729980,1360.240723 1965.687256,1353.901245 
	C1965.259521,1351.300171 1965.419800,1348.591919 1965.418945,1345.932495 
	C1965.400024,1292.354492 1965.394165,1238.776367 1965.399536,1185.198364 
	C1965.399780,1182.871460 1965.304565,1180.510376 1965.646973,1178.223999 
	C1966.695435,1171.221802 1971.967041,1167.029785 1978.900391,1167.464722 
	C1985.380249,1167.871216 1989.978149,1172.112549 1990.197754,1179.074707 
	C1990.617310,1192.374512 1990.502808,1205.690918 1990.609985,1220.000488 
z"/>
</svg>