<svg version="1.1" id="Layer_1" xmlns="http://www.w3.org/2000/svg" xmlns:xlink="http://www.w3.org/1999/xlink" x="0px" y="0px"
	 width="100%" viewBox="0 0 103 97" enable-background="new 0 0 103 97" xml:space="preserve">
<path fill="#000000" opacity="1.000000" stroke="none" 
	d="
M63.000000,98.000000 
	C42.000004,98.000000 21.500008,98.000000 1.000008,98.000000 
	C1.000005,65.666679 1.000005,33.333351 1.000003,1.000021 
	C35.333317,1.000014 69.666634,1.000014 103.999969,1.000007 
	C103.999977,33.333313 103.999977,65.666626 103.999985,97.999969 
	C90.500000,98.000000 77.000000,98.000000 63.000000,98.000000 
M38.182468,9.324409 
	C37.920609,9.520216 37.679150,9.849161 37.393978,9.892856 
	C15.931009,13.181535 1.924494,38.590408 12.818551,58.494358 
	C23.751198,78.468811 48.967518,84.262184 68.644852,71.371254 
	C73.643105,75.947647 78.621368,80.537079 83.637962,85.084236 
	C85.786140,87.031380 88.411530,87.891052 90.542160,85.587807 
	C92.651169,83.307930 92.688660,80.706177 89.910217,78.342468 
	C85.768326,74.818832 81.892433,70.984367 77.840202,67.352631 
	C75.934723,65.644875 75.767212,64.443535 77.326607,61.977139 
	C87.799561,45.412704 83.226776,24.861794 66.965851,14.501158 
	C58.404392,9.046226 48.826893,8.408737 38.182468,9.324409 
z"/>
<path fill="#B2B2B2" opacity="1.000000" stroke="none" 
	d="
M38.609734,9.182911 
	C48.826893,8.408737 58.404392,9.046226 66.965851,14.501158 
	C83.226776,24.861794 87.799561,45.412704 77.326607,61.977139 
	C75.767212,64.443535 75.934723,65.644875 77.840202,67.352631 
	C81.892433,70.984367 85.768326,74.818832 89.910217,78.342468 
	C92.688660,80.706177 92.651169,83.307930 90.542160,85.587807 
	C88.411530,87.891052 85.786140,87.031380 83.637962,85.084236 
	C78.621368,80.537079 73.643105,75.947647 68.644852,71.371254 
	C48.967518,84.262184 23.751198,78.468811 12.818551,58.494358 
	C1.924494,38.590408 15.931009,13.181535 37.393978,9.892856 
	C37.679150,9.849161 37.920609,9.520216 38.609734,9.182911 
M33.501137,20.919531 
	C20.484707,27.228718 17.332760,37.445492 19.318762,49.085754 
	C20.355690,55.163345 23.188347,61.471249 29.257494,64.533096 
	C35.197670,67.529877 41.523891,69.670082 48.519436,69.048149 
	C64.556152,67.622398 77.235344,53.054298 72.104279,35.882240 
	C67.635818,20.927725 48.872597,13.444508 33.501137,20.919531 
z"/>
<path fill="#000000" opacity="1.000000" stroke="none" 
	d="
M33.796455,20.661121 
	C48.872597,13.444508 67.635818,20.927725 72.104279,35.882240 
	C77.235344,53.054298 64.556152,67.622398 48.519436,69.048149 
	C41.523891,69.670082 35.197670,67.529877 29.257494,64.533096 
	C23.188347,61.471249 20.355690,55.163345 19.318762,49.085754 
	C17.332760,37.445492 20.484707,27.228718 33.796455,20.661121 
z"/>
</svg>