<svg version="1.1" id="Layer_1" xmlns="http://www.w3.org/2000/svg" xmlns:xlink="http://www.w3.org/1999/xlink" x="0px" y="0px"
	 width="100%" viewBox="0 0 81 83" enable-background="new 0 0 81 83" xml:space="preserve">
<path fill="#FFFFFF" opacity="1.000000" stroke="none" 
	d="
M54.000000,84.000000 
	C45.979099,84.000000 37.958199,84.000000 29.761906,83.680702 
	C29.386837,83.095802 29.241730,82.682724 28.979662,82.585762 
	C16.089005,77.816643 7.092121,69.269775 2.901850,55.959904 
	C2.753033,55.487206 1.655415,55.313213 1.000000,55.000000 
	C1.000000,46.979099 1.000000,38.958199 1.325089,30.762999 
	C2.027283,30.264931 2.623931,30.009781 2.749682,29.607452 
	C6.883960,16.380217 15.290207,7.305856 28.519844,2.815662 
	C28.847559,2.704435 28.847296,1.626871 29.000000,1.000000 
	C37.020901,1.000000 45.041798,1.000000 53.238091,1.319297 
	C53.613159,1.904192 53.758270,2.317272 54.020332,2.414227 
	C66.910988,7.183362 75.907883,15.730215 80.098152,29.040094 
	C80.246971,29.512794 81.344582,29.686789 82.000000,30.000000 
	C82.000000,38.020901 82.000000,46.041798 81.674911,54.237000 
	C80.972717,54.735069 80.376068,54.990215 80.250313,55.392548 
	C76.116035,68.619781 67.709793,77.694145 54.480148,82.184326 
	C54.152439,82.295563 54.152702,83.373131 54.000000,84.000000 
M57.472557,33.939980 
	C59.837055,34.937679 62.265545,35.809338 64.548157,36.968315 
	C66.857239,38.140736 69.371597,38.678150 70.248764,35.938278 
	C70.633827,34.735519 68.816536,31.926556 67.325310,31.162846 
	C51.444183,23.029594 34.704136,22.076708 17.580996,26.139812 
	C16.166851,26.475370 14.035461,28.958794 14.267862,29.983917 
	C14.748159,32.102520 16.211752,33.286602 19.425369,32.456291 
	C25.199352,30.964443 31.330353,29.994507 37.262554,30.205008 
	C43.831783,30.438110 50.345379,32.238991 57.472557,33.939980 
M55.573273,41.954021 
	C44.395340,37.611282 33.064213,36.374592 21.370064,39.873013 
	C19.359505,40.474495 16.383942,39.872456 17.294312,43.027679 
	C17.570915,43.986355 20.992416,44.495369 22.939690,44.412773 
	C26.314445,44.269623 29.654472,43.144855 33.023792,43.066719 
	C43.557812,42.822441 53.345123,45.703896 62.468697,50.785004 
	C66.501678,48.462791 65.227432,46.369823 62.041737,44.580650 
	C60.240105,43.568806 58.274246,42.849365 55.573273,41.954021 
M57.646820,61.960781 
	C60.267483,60.760292 61.684120,59.719704 58.129662,57.542274 
	C47.341732,50.933693 35.774136,50.397587 23.804049,52.729446 
	C21.785833,53.122608 19.890635,54.147251 17.938599,54.880127 
	C18.025099,55.427765 18.111599,55.975403 18.198099,56.523037 
	C20.210857,56.666840 22.286545,57.201962 24.226023,56.890072 
	C35.656658,55.051899 46.799770,54.855648 57.646820,61.960781 
z"/>
<path fill="#000000" opacity="1.000000" stroke="none" 
	d="
M28.531342,1.000000 
	C28.847296,1.626871 28.847559,2.704435 28.519844,2.815662 
	C15.290207,7.305856 6.883960,16.380217 2.749682,29.607452 
	C2.623931,30.009781 2.027283,30.264931 1.325089,30.294350 
	C1.000000,20.408154 1.000000,10.816306 1.000000,1.000000 
	C10.019656,1.000000 19.041170,1.000000 28.531342,1.000000 
z"/>
<path fill="#000000" opacity="1.000000" stroke="none" 
	d="
M82.000000,29.531342 
	C81.344582,29.686789 80.246971,29.512794 80.098152,29.040094 
	C75.907883,15.730215 66.910988,7.183362 54.020332,2.414227 
	C53.758270,2.317272 53.613159,1.904192 53.706741,1.319297 
	C63.261089,1.000000 72.522179,1.000000 82.000000,1.000000 
	C82.000000,10.353114 82.000000,19.707899 82.000000,29.531342 
z"/>
<path fill="#000000" opacity="1.000000" stroke="none" 
	d="
M1.000000,55.468658 
	C1.655415,55.313213 2.753033,55.487206 2.901850,55.959904 
	C7.092121,69.269775 16.089005,77.816643 28.979662,82.585762 
	C29.241730,82.682724 29.386837,83.095802 29.293255,83.680702 
	C19.738909,84.000000 10.477816,84.000000 1.000000,84.000000 
	C1.000000,74.646889 1.000000,65.292099 1.000000,55.468658 
z"/>
<path fill="#000000" opacity="1.000000" stroke="none" 
	d="
M54.468658,84.000000 
	C54.152702,83.373131 54.152439,82.295563 54.480148,82.184326 
	C67.709793,77.694145 76.116035,68.619781 80.250313,55.392548 
	C80.376068,54.990215 80.972717,54.735069 81.674911,54.705650 
	C82.000000,64.591843 82.000000,74.183693 82.000000,84.000000 
	C72.980347,84.000000 63.958832,84.000000 54.468658,84.000000 
z"/>
<path fill="#000000" opacity="1.000000" stroke="none" 
	d="
M57.177879,33.648563 
	C50.345379,32.238991 43.831783,30.438110 37.262554,30.205008 
	C31.330353,29.994507 25.199352,30.964443 19.425369,32.456291 
	C16.211752,33.286602 14.748159,32.102520 14.267862,29.983917 
	C14.035461,28.958794 16.166851,26.475370 17.580996,26.139812 
	C34.704136,22.076708 51.444183,23.029594 67.325310,31.162846 
	C68.816536,31.926556 70.633827,34.735519 70.248764,35.938278 
	C69.371597,38.678150 66.857239,38.140736 64.548157,36.968315 
	C62.265545,35.809338 59.837055,34.937679 57.177879,33.648563 
z"/>
<path fill="#000000" opacity="1.000000" stroke="none" 
	d="
M55.977814,41.976120 
	C58.274246,42.849365 60.240105,43.568806 62.041737,44.580650 
	C65.227432,46.369823 66.501678,48.462791 62.468697,50.785004 
	C53.345123,45.703896 43.557812,42.822441 33.023792,43.066719 
	C29.654472,43.144855 26.314445,44.269623 22.939690,44.412773 
	C20.992416,44.495369 17.570915,43.986355 17.294312,43.027679 
	C16.383942,39.872456 19.359505,40.474495 21.370064,39.873013 
	C33.064213,36.374592 44.395340,37.611282 55.977814,41.976120 
z"/>
<path fill="#000000" opacity="1.000000" stroke="none" 
	d="
M57.328133,61.736965 
	C46.799770,54.855648 35.656658,55.051899 24.226023,56.890072 
	C22.286545,57.201962 20.210857,56.666840 18.198099,56.523037 
	C18.111599,55.975403 18.025099,55.427765 17.938599,54.880127 
	C19.890635,54.147251 21.785833,53.122608 23.804049,52.729446 
	C35.774136,50.397587 47.341732,50.933693 58.129662,57.542274 
	C61.684120,59.719704 60.267483,60.760292 57.328133,61.736965 
z"/>
</svg>